<?xml version="1.0" encoding="utf-8"?>
<!-- Generator: Adobe Illustrator 24.2.3, SVG Export Plug-In . SVG Version: 6.00 Build 0)  -->
<svg version="1.1" id="Camada_1" xmlns="http://www.w3.org/2000/svg" xmlns:xlink="http://www.w3.org/1999/xlink" x="0px" y="0px"
	 viewBox="0 0 138.98 142" style="enable-background:new 0 0 138.98 142;" xml:space="preserve">
<style type="text/css">
	.st0{fill:#929498;}
	.st1{fill:#31BCAD;}
	.st2{fill:url(#SVGID_1_);}
	.st3{fill:#145449;}
	.st4{fill:url(#SVGID_2_);}
	.st5{fill:#FFFFFF;}
	.st6{fill:url(#SVGID_3_);}
</style>
<linearGradient id="SVGID_1_" gradientUnits="userSpaceOnUse" x1="130.2851" y1="10.2043" x2="0.7504" y2="139.739">
	<stop  offset="0" style="stop-color:#145449"/>
	<stop  offset="1" style="stop-color:#31BCAD"/>
</linearGradient>
<path class="st2" d="M106.72,142H5.14C2.3,142,0,139.7,0,136.86V32.26C0,14.44,14.44,0,32.26,0h74.46
	c17.82,0,32.26,14.44,32.26,32.26v77.48C138.98,127.56,124.54,142,106.72,142z"/>
<g>
	<path class="st5" d="M21.62,24.87v35.89c0,0.96,0.78,1.74,1.74,1.74h35.89c0.96,0,1.74-0.78,1.74-1.74V24.87
		c0-0.96-0.78-1.74-1.74-1.74H23.36C22.4,23.13,21.62,23.91,21.62,24.87z M27.24,55.14V30.49c0-0.96,0.78-1.74,1.74-1.74h24.64
		c0.96,0,1.74,0.78,1.74,1.74v24.64c0,0.96-0.78,1.74-1.74,1.74H28.98C28.02,56.87,27.24,56.1,27.24,55.14z"/>
	<path class="st5" d="M77.99,24.87v35.89c0,0.96,0.78,1.74,1.74,1.74h35.89c0.96,0,1.74-0.78,1.74-1.74V24.87
		c0-0.96-0.78-1.74-1.74-1.74H79.73C78.77,23.13,77.99,23.91,77.99,24.87z M83.61,55.14V30.49c0-0.96,0.78-1.74,1.74-1.74H110
		c0.96,0,1.74,0.78,1.74,1.74v24.64c0,0.96-0.78,1.74-1.74,1.74H85.35C84.39,56.87,83.61,56.1,83.61,55.14z"/>
	<path class="st5" d="M72.37,28.76v-3.88c0-0.96-0.78-1.74-1.74-1.74h-2.14c-0.96,0-1.74,0.78-1.74,1.74v3.88v3.88
		c0,0.96,0.78,1.74,1.74,1.74h2.14c0.96,0,1.74-0.78,1.74-1.74V28.76z"/>
	<path class="st5" d="M38.49,34.38h-3.88c-0.96,0-1.74,0.78-1.74,1.74V40v5.62v3.88c0,0.96,0.78,1.74,1.74,1.74h3.88h5.62H48
		c0.96,0,1.74-0.78,1.74-1.74v-3.88V40v-3.88c0-0.96-0.78-1.74-1.74-1.74h-3.88H38.49z"/>
	<path class="st5" d="M70.63,45.63h-2.14c-0.96,0-1.74,0.78-1.74,1.74v2.14c0,0.96,0.78,1.74,1.74,1.74h2.14
		c0.96,0,1.74-0.78,1.74-1.74v-2.14C72.37,46.41,71.59,45.63,70.63,45.63z"/>
	<path class="st5" d="M100.48,51.25h3.88c0.96,0,1.74-0.78,1.74-1.74v-3.88V40v-3.88c0-0.96-0.78-1.74-1.74-1.74h-3.88h-5.62h-3.88
		c-0.96,0-1.74,0.78-1.74,1.74V40v5.62v3.88c0,0.96,0.78,1.74,1.74,1.74h3.88H100.48z"/>
	<path class="st5" d="M70.63,56.87h-2.14c-0.96,0-1.74,0.78-1.74,1.74v2.14c0,0.96,0.78,1.74,1.74,1.74h2.14
		c0.96,0,1.74-0.78,1.74-1.74v-2.14C72.37,57.65,71.59,56.87,70.63,56.87z"/>
	<path class="st5" d="M25.5,68.25h-2.14c-0.96,0-1.74,0.78-1.74,1.74v2.14c0,0.96,0.78,1.74,1.74,1.74h2.14
		c0.96,0,1.74-0.78,1.74-1.74v-2.14C27.24,69.03,26.46,68.25,25.5,68.25z"/>
	<path class="st5" d="M38.49,68.25h-3.88c-0.96,0-1.74,0.78-1.74,1.74v2.14c0,0.96,0.78,1.74,1.74,1.74h3.88h5.62H48
		c0.96,0,1.74-0.78,1.74-1.74v-2.14c0-0.96-0.78-1.74-1.74-1.74h-3.88H38.49z"/>
	<path class="st5" d="M57.1,73.88h2.14c0.96,0,1.74-0.78,1.74-1.74v-2.14c0-0.96-0.78-1.74-1.74-1.74H57.1
		c-0.96,0-1.74,0.78-1.74,1.74v2.14C55.36,73.1,56.14,73.88,57.1,73.88z"/>
	<path class="st5" d="M104.72,68.25h-2.85c-0.77,0-1.39,0.62-1.39,1.39v2.85c0,0.77,0.62,1.39,1.39,1.39h2.85
		c0.77,0,1.39-0.62,1.39-1.39v-2.85C106.11,68.87,105.49,68.25,104.72,68.25z"/>
	<path class="st5" d="M82.23,79.5h-2.85c-0.77,0-1.39,0.62-1.39,1.39v2.85c0,0.77,0.62,1.39,1.39,1.39h2.85
		c0.77,0,1.39-0.62,1.39-1.39v-2.85C83.61,80.12,82.99,79.5,82.23,79.5z"/>
	<path class="st5" d="M117.36,84.07v-3.51c0-0.58-0.47-1.06-1.06-1.06h-14.76c-0.58,0-1.06,0.47-1.06,1.06v3.51
		c0,0.58,0.47,1.06,1.06,1.06h3.51c0.58,0,1.06,0.47,1.06,1.06v3.51c0,0.58-0.47,1.06-1.06,1.06h-3.51c-0.58,0-1.06,0.47-1.06,1.06
		v3.51c0,0.58-0.47,1.06-1.06,1.06h-3.51c-0.58,0-1.06-0.47-1.06-1.06V91.8c0-0.58,0.47-1.06,1.06-1.06h3.51
		c0.58,0,1.06-0.47,1.06-1.06v-3.51c0-0.58-0.47-1.06-1.06-1.06h-3.62c-0.52,0-0.95-0.42-0.95-0.95v-3.73
		c0-0.52,0.42-0.95,0.95-0.95h3.62c0.58,0,1.06-0.47,1.06-1.06v-3.51c0-0.58-0.47-1.06-1.06-1.06h-3.51c-0.58,0-1.06-0.47-1.06-1.06
		v-3.51c0-0.58-0.47-1.06-1.06-1.06H67.8c-0.58,0-1.06,0.47-1.06,1.06v26.01c0,0.58,0.47,1.06,1.06,1.06h3.51
		c0.58,0,1.06,0.47,1.06,1.06v3.51c0,0.58,0.47,1.06,1.06,1.06h9.14c0.58,0,1.06-0.47,1.06-1.06v-3.51c0-0.58,0.47-1.06,1.06-1.06
		h3.51c0.58,0,1.06,0.47,1.06,1.06v3.51c0,0.58,0.47,1.06,1.06,1.06h3.51c0.58,0,1.06,0.47,1.06,1.06v3.51
		c0,0.58-0.47,1.06-1.06,1.06h-9.14c-0.58,0-1.06,0.47-1.06,1.06v9.14c0,0.58,0.47,1.06,1.06,1.06h31.63c0.58,0,1.06-0.47,1.06-1.06
		V91.8c0-0.58-0.47-1.06-1.06-1.06h-3.51c-0.58,0-1.06-0.47-1.06-1.06v-3.51c0-0.58,0.47-1.06,1.06-1.06h3.51
		C116.89,85.13,117.36,84.65,117.36,84.07z M88.18,90.75H73.42c-0.58,0-1.06-0.47-1.06-1.06V74.93c0-0.58,0.47-1.06,1.06-1.06h14.76
		c0.58,0,1.06,0.47,1.06,1.06v14.76C89.24,90.28,88.77,90.75,88.18,90.75z M110.68,113.25h-9.14c-0.58,0-1.06-0.47-1.06-1.06v-3.51
		c0-0.58,0.47-1.06,1.06-1.06h3.51c0.58,0,1.06-0.47,1.06-1.06v-3.51c0-0.58,0.47-1.06,1.06-1.06h3.51c0.58,0,1.06,0.47,1.06,1.06
		v9.14C111.74,112.77,111.26,113.25,110.68,113.25z"/>
	<path class="st5" d="M21.62,81.24v35.89c0,0.96,0.78,1.74,1.74,1.74h35.89c0.96,0,1.74-0.78,1.74-1.74V81.24
		c0-0.96-0.78-1.74-1.74-1.74H23.36C22.4,79.5,21.62,80.28,21.62,81.24z M53.62,113.25H28.98c-0.96,0-1.74-0.78-1.74-1.74V86.86
		c0-0.96,0.78-1.74,1.74-1.74h24.64c0.96,0,1.74,0.78,1.74,1.74v24.64C55.36,112.47,54.59,113.25,53.62,113.25z"/>
	<path class="st5" d="M49.74,92.49v13.39c0,0.96-0.78,1.74-1.74,1.74H34.61c-0.96,0-1.74-0.78-1.74-1.74V92.49
		c0-0.96,0.78-1.74,1.74-1.74H48C48.96,90.75,49.74,91.53,49.74,92.49z"/>
	<path class="st5" d="M66.74,109.01v2.85c0,0.77,0.62,1.39,1.39,1.39h4.24h4.24c0.77,0,1.39-0.62,1.39-1.39v-2.85
		c0-0.77-0.62-1.39-1.39-1.39h-4.24h-4.24C67.36,107.62,66.74,108.24,66.74,109.01z"/>
</g>
</svg>
