<?xml version="1.0" encoding="utf-8"?>
<!-- DEPRECATED -->
<svg version="1.1" id="Camada_1" xmlns="http://www.w3.org/2000/svg" xmlns:xlink="http://www.w3.org/1999/xlink" x="0px" y="0px"
	 viewBox="0 0 713 179" style="enable-background:new 0 0 713 179;" xml:space="preserve">
<style type="text/css">
	.st0{fill:#929498;}
	.st1{fill:#31BCAD;}
</style>
<g>
	<path class="st0" d="M128.71,73.19c0,11.75-1.72,22.11-5.15,31.09c-3.43,8.98-8.09,16.47-13.96,22.48
		c-5.88,6.01-12.71,10.53-20.5,13.57c-7.79,3.04-16.04,4.55-24.75,4.55c-8.71,0-16.97-1.52-24.75-4.55
		c-7.79-3.04-14.63-7.56-20.5-13.57c-5.88-6.01-10.53-13.5-13.96-22.48c-3.43-8.98-5.15-19.34-5.15-31.09
		c0-11.75,1.71-22.08,5.15-30.99c3.43-8.91,8.09-16.37,13.96-22.38C24.97,13.82,31.8,9.3,39.6,6.26C47.38,3.22,55.64,1.7,64.35,1.7
		c8.71,0,16.96,1.52,24.75,4.55c7.79,3.04,14.62,7.56,20.5,13.56c5.87,6.01,10.53,13.47,13.96,22.38
		C126.99,51.11,128.71,61.44,128.71,73.19z M114.45,73.19c0-9.24-1.19-17.53-3.56-24.85c-2.38-7.33-5.74-13.57-10.1-18.71
		c-4.36-5.15-9.61-9.08-15.74-11.78c-6.14-2.7-13.04-4.06-20.69-4.06c-7.66,0-14.56,1.36-20.7,4.06
		c-6.14,2.71-11.39,6.63-15.74,11.78c-4.36,5.15-7.72,11.39-10.1,18.71c-2.38,7.33-3.56,15.61-3.56,24.85
		c0,9.24,1.19,17.53,3.56,24.85c2.38,7.33,5.74,13.57,10.1,18.71c4.36,5.15,9.61,9.11,15.74,11.88c6.14,2.77,13.04,4.16,20.7,4.16
		c7.65,0,14.55-1.39,20.69-4.16c6.14-2.77,11.39-6.73,15.74-11.88s7.72-11.39,10.1-18.71C113.27,90.72,114.45,82.44,114.45,73.19z"
		/>
	<path class="st0" d="M163.37,178.54h-12.87V43.09c3.83-1.32,8.71-2.57,14.65-3.76s13.47-1.78,22.58-1.78
		c7.53,0,14.36,1.22,20.5,3.66c6.14,2.44,11.42,5.97,15.84,10.59c4.42,4.62,7.85,10.23,10.3,16.83c2.44,6.6,3.66,14.06,3.66,22.38
		c0,7.79-1.03,14.95-3.07,21.49c-2.05,6.54-5.05,12.15-9.01,16.83c-3.96,4.69-8.81,8.35-14.56,10.99
		c-5.74,2.64-12.31,3.96-19.7,3.96c-6.73,0-12.58-0.96-17.53-2.87c-4.95-1.91-8.55-3.73-10.79-5.45V178.54z M163.37,123.49
		c1.19,0.93,2.67,1.92,4.46,2.97c1.78,1.06,3.86,2.05,6.24,2.97c2.38,0.93,4.95,1.68,7.72,2.28c2.77,0.59,5.68,0.89,8.71,0.89
		c6.34,0,11.65-1.09,15.94-3.27c4.29-2.18,7.76-5.15,10.4-8.91c2.64-3.76,4.55-8.19,5.74-13.27c1.19-5.08,1.78-10.46,1.78-16.14
		c0-13.47-3.37-23.79-10.1-30.99c-6.73-7.19-15.64-10.79-26.73-10.79c-6.34,0-11.46,0.3-15.35,0.89c-3.89,0.59-6.83,1.22-8.81,1.88
		V123.49z"/>
	<path class="st0" d="M252.28,90.62c0-8.98,1.29-16.8,3.86-23.47c2.58-6.66,5.94-12.24,10.1-16.73c4.16-4.49,8.91-7.82,14.26-10
		c5.35-2.18,10.86-3.27,16.54-3.27c12.54,0,22.54,4.09,30,12.28c7.46,8.19,11.19,20.79,11.19,37.82c0,1.06-0.04,2.11-0.1,3.17
		c-0.07,1.06-0.17,2.05-0.3,2.97h-71.89c0.4,12.54,3.5,22.18,9.31,28.91c5.81,6.73,15.05,10.1,27.72,10.1c7,0,12.54-0.66,16.63-1.98
		c4.09-1.32,7.06-2.44,8.91-3.37l2.38,11.09c-1.85,1.06-5.32,2.31-10.4,3.76c-5.08,1.45-11.06,2.18-17.92,2.18
		c-8.98,0-16.63-1.32-22.97-3.96c-6.34-2.64-11.55-6.34-15.64-11.09c-4.09-4.75-7.06-10.4-8.91-16.93
		C253.2,105.57,252.28,98.41,252.28,90.62z M324.96,82.5c-0.27-10.69-2.77-19.01-7.53-24.95c-4.75-5.94-11.48-8.91-20.2-8.91
		c-4.62,0-8.75,0.92-12.38,2.77c-3.63,1.85-6.8,4.33-9.5,7.43c-2.71,3.1-4.82,6.7-6.34,10.79c-1.52,4.09-2.41,8.39-2.67,12.87
		H324.96z"/>
	<path class="st0" d="M359.41,43.09c3.83-1.05,8.97-2.24,15.45-3.56c6.47-1.32,14.39-1.98,23.76-1.98c7.79,0,14.29,1.12,19.51,3.37
		c5.21,2.25,9.37,5.45,12.48,9.6c3.1,4.16,5.31,9.14,6.63,14.95c1.32,5.81,1.98,12.21,1.98,19.21v57.23h-12.87V88.84
		c0-7.26-0.49-13.4-1.48-18.42c-0.99-5.02-2.64-9.11-4.95-12.28c-2.31-3.17-5.35-5.45-9.11-6.83c-3.76-1.39-8.48-2.08-14.16-2.08
		c-6.07,0-11.32,0.33-15.74,0.99c-4.43,0.66-7.3,1.26-8.62,1.78v89.91h-12.87V43.09z"/>
	<path class="st1" d="M500.01,3.48c19.41,0,33.86,3.7,43.37,11.09c9.51,7.4,14.26,17.89,14.26,31.49c0,7.79-1.39,14.43-4.16,19.9
		c-2.77,5.48-6.73,9.9-11.88,13.27s-11.46,5.81-18.91,7.33c-7.46,1.52-15.88,2.28-25.25,2.28h-18.62v53.07h-13.47V7.25
		c4.75-1.32,10.33-2.28,16.73-2.87C488.49,3.78,494.47,3.48,500.01,3.48z M500.61,15.17c-5.02,0-9.28,0.17-12.77,0.5
		c-3.5,0.33-6.5,0.63-9.01,0.89v60.6h17.03c7.26,0,13.83-0.43,19.7-1.29c5.87-0.86,10.89-2.44,15.05-4.75
		c4.16-2.31,7.36-5.51,9.6-9.61c2.24-4.09,3.37-9.31,3.37-15.64c0-6.07-1.22-11.09-3.66-15.05c-2.44-3.96-5.68-7.09-9.7-9.41
		c-4.03-2.31-8.61-3.93-13.76-4.85C511.3,15.63,506.02,15.17,500.61,15.17z"/>
	<path class="st1" d="M575.07,4.67h13.47v137.24h-13.47V4.67z"/>
	<path class="st1" d="M695.86,4.67h15.05l-44.84,66.42c8.71,11.8,17.21,23.64,25.51,35.51c8.3,11.87,15.54,23.64,21.7,35.31H698.8
		c-2.05-3.99-4.62-8.41-7.71-13.26c-3.1-4.85-6.46-9.95-10.08-15.29c-3.62-5.35-7.38-10.7-11.27-16.04
		c-3.89-5.35-7.61-10.38-11.16-15.11c-3.59,4.72-7.34,9.76-11.26,15.11c-3.92,5.35-7.71,10.69-11.36,16.04
		c-3.65,5.35-7.04,10.45-10.16,15.29c-3.12,4.85-5.63,9.27-7.53,13.27h-14.1c6.18-11.69,13.42-23.44,21.75-35.26
		c8.32-11.82,16.78-23.57,25.37-35.26L606.35,4.67h15.45l36.99,55.49L695.86,4.67z"/>
</g>
</svg>
