<?xml version="1.0" encoding="UTF-8"?>
<svg id="Camada_1" data-name="Camada 1" xmlns="http://www.w3.org/2000/svg" viewBox="0 0 377 377">
  <defs>
    <style>
      .cls-1 {
        fill: #03d69d;
      }

      .cls-2 {
        fill: #fff;
      }
    </style>
  </defs>
  <rect class="cls-1" width="377" height="377" rx="60.08" ry="60.08"/>
  <path class="cls-2" d="M152.18,199.53c8.63,8.63,16.38,16.38,24.35,24.35-17.93,21.92-40.07,35.42-69.74,29.89-27.45-5.31-45.61-22.36-52.69-49.59-7.53-29,5.76-58.89,31.44-73.5,25.68-14.61,58-10.85,79.26,9.96,23.69,23.02,46.71,46.71,70.18,70.18,12.18,11.96,29.89,13.28,42.95,3.76,14.61-10.85,17.27-31.88,5.98-46.05-11.29-14.17-32.32-16.38-46.05-4.65-4.65,3.99-8.63,9.08-12.62,13.73-8.86-8.86-16.6-16.6-24.57-24.57,17.27-21.47,39.19-35.87,71.73-29.45,27.23,5.31,47.38,27.45,51.81,55.35,4.43,27.23-9.96,55.57-34.98,68.63-25.68,13.28-56.68,8.86-77.49-11.73-23.25-23.02-46.49-46.49-69.74-69.52-9.96-9.96-23.91-13.06-36.31-7.31-12.4,5.53-19.26,15.5-19.48,29.22s6.2,23.91,18.6,29.89c12.62,5.76,24.57,3.99,34.98-5.09,4.87-4.43,8.41-9.3,12.4-13.5Z"/>
</svg>